<?xml version="1.0" standalone="no"?>
<!DOCTYPE svg PUBLIC "-//W3C//DTD SVG 1.1//EN" "http://www.w3.org/Graphics/SVG/1.1/DTD/svg11.dtd">

<svg width="135" height="50" viewBox="0 0 135 50" preserveAspectRatio="none" 
  xmlns="http://www.w3.org/2000/svg"
  xmlns:xlink="http://www.w3.org/1999/xlink">


<polyline points="0.0, 43.80811597844834 0.8035714285714285, 45.71570221015979 1.607142857142857, 47.21222375345796 2.4107142857142856, 48.27309076182491 3.214285714285714, 48.61702938329829 4.017857142857142, 49.7910936911487 4.821428571428571, 50.0 5.625, 48.09665344015576 6.428571428571428, 48.64535003742133 7.232142857142857, 49.35905241271344 8.035714285714285, 48.85489400023231 8.839285714285715, 48.307823492936095 9.642857142857142, 48.168540055474026 10.446428571428571, 48.26658097065368 11.25, 49.023846219206376 12.053571428571429, 49.19315541404401 12.857142857142856, 49.23984819888213 13.660714285714286, 48.818420558124025 14.464285714285714, 48.13994538144039 15.267857142857142, 47.60570281443316 16.07142857142857, 47.241935934742926 16.875, 47.142623471558025 17.67857142857143, 46.910359760679334 18.482142857142858, 47.21052215575315 19.285714285714285, 46.85149215898555 20.089285714285715, 46.595135871496836 20.892857142857142, 46.321015719777925 21.696428571428573, 45.6132282016951 22.5, 45.282554254261456 23.303571428571427, 45.117933626731876 24.107142857142858, 40.77093979273874 24.91071428571429, 39.776485391657076 25.71428571428571, 38.44569845322636 26.517857142857142, 36.05999382637063 27.321428571428573, 35.26471993982339 28.125, 30.91348090245577 28.928571428571427, 28.80177678689368 29.732142857142858, 28.021848390515764 30.535714285714285, 26.986977444813938 31.339285714285715, 25.480980708505673 32.14285714285714, 23.925985544203247 32.94642857142857, 23.242323181702133 33.75, 22.94880611785263 34.55357142857142, 22.48103583587011 35.35714285714286, 21.645990542452097 36.160714285714285, 20.319410836518745 36.964285714285715, 17.55880290083054 37.767857142857146, 15.674647653338225 38.57142857142857, 13.135180214847821 39.375, 12.343085798621253 40.17857142857143, 11.812402709446628 40.982142857142854, 11.251233926332036 41.785714285714285, 11.445382626507524 42.589285714285715, 10.489871627418283 43.392857142857146, 14.076342585817269 44.19642857142857, 15.420871425293806 45.0, 16.564607615864503 45.80357142857143, 17.322036500042685 46.607142857142854, 17.56425765718547 47.410714285714285, 21.483069884748627 48.214285714285715, 23.184923681480303 49.01785714285714, 23.87751229554448 49.82142857142858, 24.514501821671104 50.625, 25.08036040519761 51.42857142857142, 24.792136080820896 52.23214285714286, 24.77859677392289 53.035714285714285, 24.85433215521798 53.839285714285715, 24.90476628606386 54.642857142857146, 24.660889702613197 55.44642857142857, 25.281372781897655 56.25, 23.534071182517422 57.05357142857143, 23.609848212877775 57.857142857142854, 25.391497691834218 58.660714285714285, 24.227123858814323 59.464285714285715, 23.08293666487548 60.267857142857146, 22.65983023185351 61.07142857142857, 20.598249141493767 61.875, 20.914186652597394 62.67857142857143, 19.118028265762753 63.482142857142854, 18.56890228151615 64.28571428571428, 19.6496498599432 65.08928571428572, 18.413674849460374 65.89285714285714, 18.70398645022291 66.69642857142857, 18.72506067327447 67.5, 18.723605712459364 68.30357142857143, 18.29359772736906 69.10714285714285, 17.803336558689324 69.91071428571429, 17.137167672457768 70.71428571428572, 18.52016201011047 71.51785714285714, 19.5982969139636 72.32142857142857, 18.97254029451742 73.125, 19.161091916175586 73.92857142857143, 19.963090397907354 74.73214285714286, 19.57145706807855 75.53571428571429, 23.13516317593136 76.33928571428571, 23.525575132837204 77.14285714285714, 23.10125910459607 77.94642857142857, 22.635485596912467 78.75, 23.478894567148195 79.55357142857143, 23.75021039525529 80.35714285714286, 25.420002300655476 81.16071428571428, 26.243223933847798 81.96428571428571, 27.130243057542103 82.76785714285715, 27.302117505291957 83.57142857142857, 27.56472798745501 84.375, 27.644872220418804 85.17857142857143, 27.74038106510147 85.98214285714285, 27.635290543103512 86.78571428571429, 28.135387302604254 87.58928571428572, 28.094072765516852 88.39285714285714, 28.032783945793383 89.19642857142857, 28.100794375150436 90.0, 27.352417655789147 90.80357142857143, 26.60975925604413 91.60714285714286, 24.802808089760067 92.41071428571429, 23.904257025519346 93.21428571428571, 21.844649451926422 94.01785714285714, 21.018767840908808 94.82142857142857, 17.02618323401125 95.625, 11.882236207196325 96.42857142857143, 9.789238508523006 97.23214285714286, 9.164571357827649 98.03571428571428, 7.456269415697515 98.83928571428571, 7.399790239287994 99.64285714285715, 6.221153788491873 100.44642857142857, 5.366384337912471 101.25, 5.935766234895324 102.05357142857143, 4.74350126696943 102.85714285714285, 4.7229521403002215 103.66071428571429, 5.901753148879902 104.46428571428572, 6.153127937227672 105.26785714285714, 5.417912021356161 106.07142857142857, 4.448209167996012 106.875, 3.78958470682837 107.67857142857143, 2.702260798367496 108.48214285714286, 1.8610094672572302 109.28571428571429, 0.7976811126565628 110.08928571428571, 0.0 110.89285714285714, 1.1977300498011811 111.69642857142857, 2.1609785759829916 112.5, 1.631310181837671 113.30357142857143, 2.701318090527687 114.10714285714286, 2.8615102519240647 114.91071428571428, 5.57597138842593 115.71428571428571, 6.1303332105500585 116.51785714285715, 7.42041496996686 117.32142857142857, 7.433452631401642 118.125, 7.365120533008011 118.92857142857143, 9.358930765263409 119.73214285714285, 10.200025410983901 120.53571428571429, 9.842090546935692 121.33928571428572, 11.800943987940807 122.14285714285714, 12.498021227060915 122.94642857142857, 13.762791753584796 123.75, 13.440828878166938 124.55357142857143, 13.6872054764792 125.35714285714286, 14.5874092713108 126.16071428571429, 15.575296423721351 126.96428571428571, 17.649916542264233 127.76785714285714, 19.25856733014977 128.57142857142856, 20.187913069106674 129.375, 20.53644572863967 130.17857142857144, 21.45153456017025 130.98214285714286, 22.07248508240203 131.78571428571428, 23.81150793372704 132.5892857142857, 23.6957760537356 133.39285714285714, 30.12023563254253 134.19642857142858, 33.34182314137452" fill="none" stroke="#32ca5b" stroke-width="1.25"/>

</svg>