<?xml version="1.0" standalone="no"?>
<!DOCTYPE svg PUBLIC "-//W3C//DTD SVG 1.1//EN" "http://www.w3.org/Graphics/SVG/1.1/DTD/svg11.dtd">

<svg width="135" height="50" viewBox="0 0 135 50" preserveAspectRatio="none" 
  xmlns="http://www.w3.org/2000/svg"
  xmlns:xlink="http://www.w3.org/1999/xlink">


<polyline points="0.0, 43.03068675037981 0.8035714285714285, 42.268513596121885 1.607142857142857, 42.36932636351655 2.4107142857142856, 42.910386705454265 3.214285714285714, 43.281466829317324 4.017857142857142, 44.09100716337252 4.821428571428571, 41.64107118542093 5.625, 38.53346341628032 6.428571428571428, 39.5568880627603 7.232142857142857, 42.01914467654184 8.035714285714285, 43.88110664266213 8.839285714285715, 42.38516014617708 9.642857142857142, 42.46206092526743 10.446428571428571, 44.71709215604059 11.25, 45.52578661938108 12.053571428571429, 44.56967013481389 12.857142857142856, 43.1865132053765 13.660714285714286, 47.346934804262425 14.464285714285714, 48.26275428609558 15.267857142857142, 47.09441699564952 16.07142857142857, 46.968664008213416 16.875, 49.52425840412732 17.67857142857143, 50.0 18.482142857142858, 49.24560660487952 19.285714285714285, 48.38261787089053 20.089285714285715, 44.35283010894473 20.892857142857142, 45.845555663384154 21.696428571428573, 44.254266154292644 22.5, 44.60473186367241 23.303571428571427, 49.31848825166063 24.107142857142858, 37.747813770183 24.91071428571429, 40.70336962044065 25.71428571428571, 39.8283936469891 26.517857142857142, 37.5420344149448 27.321428571428573, 34.80950710270046 28.125, 29.71847798155868 28.928571428571427, 32.98284505096614 29.732142857142858, 34.4743185831921 30.535714285714285, 34.67213882237767 31.339285714285715, 36.90128498380202 32.14285714285714, 37.96886083174976 32.94642857142857, 35.7572812276498 33.75, 37.50155046640064 34.55357142857142, 38.4349995666956 35.35714285714286, 38.85073376044301 36.160714285714285, 39.69475049059843 36.964285714285715, 36.88116692203675 37.767857142857146, 33.01888369296657 38.57142857142857, 37.628165564216495 39.375, 36.17897264083293 40.17857142857143, 34.22875361689423 40.982142857142854, 36.02406780082799 41.785714285714285, 36.16611242940444 42.589285714285715, 36.00315514195594 43.392857142857146, 37.592182168498496 44.19642857142857, 36.53298980314912 45.0, 40.92195039088178 45.80357142857143, 40.76241754279302 46.607142857142854, 39.655331246603744 47.410714285714285, 39.135780217650925 48.214285714285715, 40.61433464900378 49.01785714285714, 38.80358705167683 49.82142857142858, 37.65087048785369 50.625, 34.9240618253231 51.42857142857142, 30.950029923015727 52.23214285714286, 35.21261498663745 53.035714285714285, 34.36991878542317 53.839285714285715, 35.53007249957573 54.642857142857146, 35.571542140585905 55.44642857142857, 34.052151281516544 56.25, 38.807403477493715 57.05357142857143, 38.97511318076276 57.857142857142854, 37.4234931691779 58.660714285714285, 30.834422508741234 59.464285714285715, 32.94867965705146 60.267857142857146, 27.03077272899288 61.07142857142857, 28.318302189662877 61.875, 29.61051898939998 62.67857142857143, 22.158506424807424 63.482142857142854, 26.195537150696868 64.28571428571428, 28.029148503035202 65.08928571428572, 24.321535797184644 65.89285714285714, 24.78078592366059 66.69642857142857, 24.380763407059852 67.5, 28.402200478669766 68.30357142857143, 28.713167256839327 69.10714285714285, 32.94924370673405 69.91071428571429, 31.84020328641841 70.71428571428572, 31.685081493970525 71.51785714285714, 33.6754791788796 72.32142857142857, 33.04865101611151 73.125, 30.61468775020133 73.92857142857143, 32.98809845649252 74.73214285714286, 31.86714452311032 75.53571428571429, 29.41617663559742 76.33928571428571, 34.83481424870198 77.14285714285714, 34.515545046949164 77.94642857142857, 38.622280971502114 78.75, 36.67189660410297 79.55357142857143, 38.15439401538803 80.35714285714286, 35.25002598423892 81.16071428571428, 36.19129942858248 81.96428571428571, 38.32302026066063 82.76785714285715, 39.346588182099914 83.57142857142857, 42.54354593869078 84.375, 39.59626153282995 85.17857142857143, 36.81548612965417 85.98214285714285, 35.56276203009976 86.78571428571429, 36.37433615120678 87.58928571428572, 33.36633198142044 88.39285714285714, 31.128749929471955 89.19642857142857, 28.845448479222668 90.0, 30.399107040400686 90.80357142857143, 29.894941600651208 91.60714285714286, 24.272813929308626 92.41071428571429, 24.420347575821125 93.21428571428571, 23.04758672062077 94.01785714285714, 25.034832444369172 94.82142857142857, 24.8620087675866 95.625, 15.264921089326307 96.42857142857143, 13.506883371061331 97.23214285714286, 17.39266018703906 98.03571428571428, 14.886757991053484 98.83928571428571, 19.415190768807776 99.64285714285715, 21.42145509625687 100.44642857142857, 17.638163451335544 101.25, 17.486918120136753 102.05357142857143, 16.7914021110163 102.85714285714285, 15.478794339642999 103.66071428571429, 17.177948188553632 104.46428571428572, 19.716117976323755 105.26785714285714, 13.95598142842654 106.07142857142857, 13.621958122041988 106.875, 11.816647696127584 107.67857142857143, 11.698653075404184 108.48214285714286, 11.117693886230155 109.28571428571429, 8.26811556865307 110.08928571428571, 8.426719110317503 110.89285714285714, 12.585922993754226 111.69642857142857, 12.001047759569797 112.5, 8.822850055360004 113.30357142857143, 9.312774704837851 114.10714285714286, 2.3873130816401553 114.91071428571428, 4.53957318388731 115.71428571428571, 0.0 116.51785714285715, 5.359010148721302 117.32142857142857, 5.169884492356941 118.125, 7.237148223334273 118.92857142857143, 6.2507185806392656 119.73214285714285, 6.179780780676982 120.53571428571429, 4.842220360649781 121.33928571428572, 5.9634197122303565 122.14285714285714, 4.726602030730837 122.94642857142857, 4.280874792668405 123.75, 1.8977743060382741 124.55357142857143, 3.418925301748963 125.35714285714286, 3.828995062297479 126.16071428571429, 5.575676803224407 126.96428571428571, 8.299683267947328 127.76785714285714, 8.060452450480263 128.57142857142856, 11.11712759278953 129.375, 10.390515751930943 130.17857142857144, 8.387158726203912 130.98214285714286, 8.140267181883884 131.78571428571428, 11.093028402305007 132.5892857142857, 11.385462434715034 133.39285714285714, 8.433240718804978 134.19642857142858, 9.513414680131705" fill="none" stroke="#32ca5b" stroke-width="1.25"/>

</svg>